<?xml version="1.0" standalone="no"?><!DOCTYPE svg PUBLIC "-//W3C//DTD SVG 1.1//EN" "http://www.w3.org/Graphics/SVG/1.1/DTD/svg11.dtd"><svg t="1561702257326" class="icon" viewBox="0 0 1024 1024" version="1.1" xmlns="http://www.w3.org/2000/svg" p-id="56768" xmlns:xlink="http://www.w3.org/1999/xlink" width="200" height="200"><defs><style type="text/css"></style></defs><path d="M918.08768 483.25632l-0.1536-0.1536-137.5744-137.5744c-7.6288-7.6288-17.92512-11.83232-28.99968-11.83232s-21.37088 4.20352-28.99968 11.83232c-15.7184 15.7184-15.7184 42.27584 0 57.99936l67.51232 67.51232H407.552c-22.58432 0-40.96 18.37568-40.96 40.96s18.37568 40.96 40.96 40.96h382.83264l-68.02432 68.02432c-15.7184 15.7184-15.7184 42.28096 0 57.99936 7.8592 7.8592 18.432 11.79136 28.99968 11.79136s21.14048-3.93216 28.99968-11.79136l137.728-137.728c15.72352-15.72352 15.72352-42.28096 0-57.99936z" fill="#3d9df8" p-id="56769"></path><path d="M718.848 726.528c-18.67264 0-34.43712 12.57472-39.3472 29.696h-1.6128v111.616c0 11.29472-9.18528 20.48-20.48 20.48h-460.8c-11.29472 0-20.48-9.18528-20.48-20.48v-711.68c0-11.29472 9.18528-20.48 20.48-20.48h460.8c11.29472 0 20.48 9.18528 20.48 20.48v125.44h1.34656c4.56704 17.6384 20.56704 30.72 39.61344 30.72s35.0464-13.0816 39.61344-30.72h1.34656v-125.44c0-56.46336-45.93664-102.4-102.4-102.4h-460.8c-56.46336 0-102.4 45.93664-102.4 102.4v711.68c0 56.46336 45.93664 102.4 102.4 102.4h460.8c56.46336 0 102.4-45.93664 102.4-102.4v-111.616h-1.6128c-4.90496-17.11616-20.66944-29.696-39.3472-29.696z" fill="#3d9df8" p-id="56770"></path></svg>